<?xml version="1.0" encoding="UTF-8" standalone="no"?>
<svg xmlns="http://www.w3.org/2000/svg" version="1.1" viewBox="0.00 0.00 800.00 800.00">
<path fill="#353535" d="
  M 391.56 382.39
  Q 390.89 382.51 388.24 381.73
  Q 375.09 377.88 364.98 369.75
  Q 343.51 352.50 339.35 324.99
  Q 339.07 323.18 338.19 317.69
  A 5.07 4.81 43.5 0 1 338.14 316.75
  Q 338.50 307.08 334.11 299.02
  Q 330.44 292.27 323.90 287.25
  Q 317.16 282.08 310.27 279.53
  C 302.76 276.74 293.22 275.86 285.64 279.30
  Q 276.51 283.45 275.17 283.93
  C 261.68 288.83 249.06 290.04 235.18 287.07
  C 208.48 281.36 186.70 260.85 180.86 233.46
  Q 180.39 231.22 179.82 222.69
  C 176.85 178.19 214.86 141.95 258.87 148.38
  C 290.57 153.01 315.10 177.82 318.89 209.53
  C 319.83 217.44 319.48 224.66 323.05 231.72
  C 329.69 244.86 345.90 255.91 361.01 256.13
  Q 371.57 256.29 380.98 248.90
  C 386.89 244.26 388.39 236.43 387.40 229.22
  Q 386.57 223.11 382.45 218.35
  A 1.05 0.45 66.6 0 0 382.29 218.20
  L 375.55 213.01
  A 3.23 3.00 73.6 0 0 374.91 212.63
  Q 369.68 210.30 366.06 207.69
  C 357.77 201.73 350.78 194.78 345.63 185.97
  C 327.86 155.55 334.62 116.86 361.81 94.83
  C 382.33 78.20 411.37 74.67 436.11 85.98
  Q 444.35 89.75 450.85 95.67
  Q 454.43 98.93 459.03 104.14
  Q 474.53 121.69 476.18 145.53
  Q 478.02 171.99 461.49 193.28
  Q 453.38 203.71 442.35 210.10
  C 436.96 213.21 432.95 215.10 430.49 219.01
  C 426.80 224.88 426.97 232.43 428.40 239.20
  C 429.83 246.04 435.48 249.43 442.04 252.45
  C 463.46 262.31 496.21 242.74 497.07 218.97
  C 497.54 205.99 499.29 194.27 505.69 182.68
  Q 521.87 153.38 555.24 146.48
  C 579.13 141.54 603.98 150.40 619.75 168.23
  C 641.13 192.41 643.84 225.29 626.46 252.97
  C 623.83 257.15 618.45 263.98 614.14 267.68
  Q 603.06 277.19 591.18 281.43
  C 574.05 287.54 555.91 287.24 539.68 279.83
  Q 538.25 279.18 530.15 275.81
  C 527.91 274.88 524.93 274.87 521.71 274.84
  C 503.68 274.67 484.87 287.92 479.95 305.55
  C 478.58 310.45 478.81 317.86 478.18 322.47
  Q 475.69 340.81 466.58 353.86
  Q 449.73 378.03 420.87 383.36
  Q 408.08 385.72 391.67 382.67
  A 0.12 0.09 23.5 0 1 391.58 382.51
  Q 391.59 382.49 391.62 382.45
  A 0.05 0.05 0.0 0 0 391.56 382.39
  Z"
/>
<path fill="#353535" d="
  M 526.16 390.76
  C 527.35 392.77 531.74 393.81 534.26 394.34
  Q 537.22 394.96 542.73 395.12
  Q 547.00 395.24 551.17 394.14
  C 566.83 390.01 581.49 378.19 583.10 361.50
  Q 583.75 354.75 584.11 353.02
  Q 586.78 340.34 591.41 331.91
  C 595.27 324.88 602.11 315.42 609.44 310.01
  Q 613.07 307.33 615.72 305.51
  Q 617.23 304.48 618.51 303.76
  Q 622.01 301.79 622.11 301.66
  A 1.00 0.99 21.1 0 1 622.94 301.30
  Q 623.22 301.32 627.21 299.75
  Q 642.89 293.60 659.26 294.71
  C 702.19 297.60 732.24 339.50 721.72 381.23
  Q 716.59 401.58 700.16 416.67
  C 698.12 418.54 696.23 419.61 694.14 421.47
  Q 693.19 422.31 691.70 423.32
  Q 679.41 431.62 663.70 434.12
  Q 642.36 437.52 623.12 428.07
  Q 622.53 427.78 612.51 422.44
  C 608.61 420.36 605.03 420.15 599.95 419.84
  Q 597.63 419.70 594.61 420.24
  C 581.09 422.63 567.63 430.75 561.42 443.21
  C 558.02 450.04 557.01 459.05 561.77 465.55
  A 2.90 2.74 2.2 0 0 562.31 466.10
  Q 566.84 469.65 572.12 471.55
  C 580.22 474.48 585.17 470.14 591.50 465.99
  C 625.52 443.67 671.63 456.47 691.12 491.57
  Q 700.84 509.06 699.50 529.52
  Q 698.59 543.50 693.40 554.98
  Q 687.76 567.45 678.19 576.21
  C 664.62 588.63 647.41 595.79 628.81 595.35
  Q 600.51 594.68 580.84 576.12
  C 572.32 568.07 565.67 558.35 562.58 546.97
  Q 559.42 535.35 559.23 529.73
  Q 558.90 519.95 558.73 517.55
  Q 558.40 512.78 554.98 509.58
  C 549.48 504.41 540.55 500.54 533.44 504.70
  Q 529.45 507.03 524.14 511.89
  Q 517.92 517.60 514.85 527.14
  C 509.24 544.61 513.03 567.74 529.31 578.74
  Q 539.76 585.80 545.60 591.16
  Q 553.99 598.84 559.18 609.27
  C 567.04 625.06 569.60 643.34 564.73 660.26
  C 555.74 691.53 527.60 712.41 495.30 711.69
  C 471.87 711.18 451.62 699.34 438.73 680.01
  C 420.09 652.06 424.13 615.38 447.52 591.53
  C 451.63 587.34 456.81 583.78 460.90 579.91
  C 468.39 572.84 472.35 561.68 472.73 551.47
  C 473.24 537.79 468.95 523.98 458.62 515.15
  C 455.00 512.05 448.84 508.47 444.83 505.20
  Q 419.20 484.28 418.15 450.98
  C 417.83 440.52 420.58 429.23 424.90 420.13
  C 434.46 399.98 452.66 385.35 474.51 381.26
  Q 490.43 378.29 505.87 382.17
  Q 513.78 384.16 525.03 390.38
  A 1.83 1.77 -26.3 0 0 525.72 390.60
  Q 525.85 390.62 525.90 390.62
  A 0.29 0.28 72.4 0 1 526.16 390.76
  Z"
/>
<path fill="#353535" d="
  M 389.92 413.97
  Q 389.93 414.02 389.99 414.31
  A 0.54 0.43 -77.6 0 0 390.10 414.53
  Q 391.95 416.84 393.62 420.36
  Q 401.66 437.41 400.91 455.68
  Q 400.80 458.47 400.23 461.00
  C 399.72 463.28 399.75 465.58 399.08 468.07
  Q 392.45 492.80 371.53 508.29
  Q 368.77 510.34 363.46 513.99
  C 347.57 524.91 344.10 547.72 349.93 564.85
  Q 352.02 571.00 357.73 577.72
  Q 359.06 579.28 366.43 584.86
  C 391.37 603.73 402.29 637.74 389.98 667.45
  Q 384.59 680.47 376.41 689.14
  C 352.10 714.90 314.50 718.92 285.08 699.29
  Q 278.98 695.22 270.89 685.86
  Q 262.18 675.78 257.92 662.13
  C 248.67 632.50 259.83 599.93 285.92 582.68
  Q 288.93 580.69 293.07 577.53
  C 305.34 568.19 309.29 551.06 307.33 536.43
  C 306.12 527.31 301.70 517.48 294.13 511.83
  Q 288.94 507.95 285.62 506.66
  C 277.39 503.46 264.43 510.63 262.70 519.37
  Q 262.36 521.04 262.63 527.64
  Q 263.83 557.88 242.32 579.89
  Q 232.64 589.81 219.17 595.45
  C 186.67 609.05 149.92 597.61 131.75 567.27
  C 120.96 549.27 118.74 528.09 125.82 508.08
  Q 133.33 486.83 153.11 472.85
  C 158.88 468.78 165.38 466.26 172.29 463.86
  Q 176.05 462.55 180.54 461.80
  Q 208.25 457.18 231.99 472.77
  Q 235.55 475.11 238.53 476.17
  A 5.10 5.00 56.2 0 0 239.78 476.43
  Q 248.82 477.17 255.83 470.50
  Q 260.65 465.92 260.55 458.75
  C 260.42 449.06 255.87 440.81 249.21 434.70
  Q 237.21 423.69 220.94 422.09
  Q 211.82 421.20 203.86 425.37
  C 197.81 428.54 193.13 431.45 188.43 433.15
  Q 172.51 438.91 157.71 437.46
  Q 128.98 434.66 109.94 413.23
  Q 96.72 398.35 93.98 377.69
  Q 91.56 359.42 96.93 343.97
  C 104.89 321.08 123.52 304.11 147.10 298.49
  C 167.72 293.58 190.37 298.75 207.08 312.44
  Q 225.53 327.56 231.29 351.01
  C 232.57 356.22 233.10 363.37 234.87 368.66
  C 239.59 382.87 254.57 393.15 269.28 395.90
  Q 277.82 397.49 286.43 395.20
  C 290.95 393.99 297.60 389.81 302.53 387.62
  Q 314.69 382.22 328.40 381.54
  Q 342.29 380.85 354.66 385.43
  Q 376.32 393.45 389.64 413.30
  A 1.86 1.76 23.8 0 1 389.92 413.97
  Z"
/>
</svg>
